<svg width="157" height="48" viewBox="0 0 157 48" fill="none" xmlns="http://www.w3.org/2000/svg">
<path d="M149.312 32.8433C149.312 30.8653 150.876 29.3013 152.854 29.3013C154.786 29.3013 156.396 30.8653 156.396 32.8433C156.396 34.8213 154.786 36.3853 152.854 36.3853C150.876 36.3853 149.312 34.8213 149.312 32.8433Z" fill="#F3ECE4"/>
<path d="M132.61 22.4013C132.61 28.4733 135.462 32.5673 140.154 32.5673C143.144 32.5673 145.214 31.2333 146.732 28.9333L147.422 29.2553C145.996 33.9013 142.822 36.3853 138.406 36.3853C132.334 36.3853 128.056 31.7393 128.056 24.7013C128.056 17.0653 132.518 11.3613 139.556 11.3613C143.926 11.3613 146.778 13.2013 146.778 16.4213C146.778 17.7553 146.088 18.8593 145.168 19.3653H142.132C142.224 18.7673 142.316 18.1233 142.316 17.2953C142.316 14.9953 141.534 12.9253 138.728 12.9253C134.91 12.9253 132.61 17.0653 132.61 22.4013Z" fill="#F3ECE4"/>
<path d="M119.32 32.4293V18.9973C119.32 15.9153 118.078 14.5353 115.456 14.5353C113.294 14.5353 111.27 15.6393 109.66 16.9273V32.4293C109.66 34.1313 110.396 34.4533 112.65 34.5913V35.9253H101.472V34.5913C103.772 34.4533 104.508 34.1313 104.508 32.4293V16.0073L101.61 14.3973V13.7533L109.062 11.3613H109.844L109.66 15.7773C111.73 13.4313 114.398 11.3613 118.078 11.3613C122.356 11.3613 124.472 13.7993 124.472 18.7673V32.4293C124.472 34.1313 125.208 34.4533 127.508 34.5913V35.9253H116.284V34.5913C118.584 34.4533 119.32 34.1313 119.32 32.4293Z" fill="#F3ECE4"/>
<path d="M96.7671 11.3614V32.4294C96.7671 34.1314 97.5031 34.4534 99.8031 34.5914V35.9254H88.5791V34.5914C90.8791 34.4534 91.6151 34.1314 91.6151 32.4294V16.0074L88.7171 14.3974V13.7534L96.0311 11.3614H96.7671ZM94.0531 8.09538C92.1671 8.09538 90.7871 6.62338 90.7871 4.87538C90.7871 3.08138 92.1671 1.60938 94.0531 1.60938C95.9391 1.60938 97.3651 3.08138 97.3651 4.87538C97.3651 6.62338 95.9391 8.09538 94.0531 8.09538Z" fill="#F3ECE4"/>
<path d="M73.2657 14.0459C69.0797 14.0459 66.4577 18.0479 66.4577 24.0739C66.4577 29.6859 68.8957 34.0099 73.4497 34.0099C75.3817 34.0099 76.9457 33.3659 78.1417 32.1239V20.3479C78.1417 16.3919 76.2097 14.0459 73.2657 14.0459ZM78.1417 5.48993L75.2438 3.92593V3.23594L82.5577 0.981934H83.2937V32.3539C83.2937 33.9179 83.3857 34.3319 85.3177 34.5159L86.5137 34.6079V35.8039L78.8777 37.4599H77.9577L78.1417 33.1819C76.3017 35.7119 74.0017 37.4599 70.7357 37.4599C65.1237 37.4599 61.4897 32.8139 61.4897 26.0979C61.4897 17.5879 66.4577 12.4819 72.9437 12.4819C75.1977 12.4819 76.9917 13.1259 78.1417 14.1839V5.48993Z" fill="#F3ECE4"/>
<path d="M52.0878 30.56L57.2858 16.99C57.4698 16.576 57.5158 16.162 57.5158 15.84C57.5158 14.69 56.4578 14.46 54.4798 14.23V12.896H62.0698V14.23C60.4138 14.644 60.0918 14.966 59.7238 15.932L51.2138 37.414H49.6958L44.1758 22.142L38.1958 37.414H36.7238L27.9378 15.932C27.5238 14.966 27.2478 14.644 25.5918 14.23V12.896H36.5398V14.23C34.6078 14.46 33.6418 14.69 33.6418 15.794C33.6418 16.162 33.6878 16.53 33.8718 16.99L39.0698 30.744L43.3018 19.658L41.9218 15.932C41.5998 14.966 41.2318 14.598 39.6678 14.23V12.896H50.2018V14.23C48.1778 14.46 47.1198 14.644 47.1198 15.84C47.1198 16.162 47.2118 16.53 47.3498 16.99L52.0878 30.56Z" fill="#F3ECE4"/>
<path d="M11.9055 28.26C10.3875 28.26 8.91552 28.03 7.58152 27.524C6.56952 28.582 5.83352 29.64 5.83352 30.606C5.83352 31.71 6.43152 32.308 7.62752 32.308H16.7355C21.5195 32.308 24.3715 34.286 24.3715 38.288C24.3715 43.992 18.5295 47.212 11.3075 47.212C4.91352 47.212 0.95752 45.096 0.95752 41.416C0.95752 38.978 3.02752 37.552 5.32752 36.678C3.57952 36.034 2.61352 34.608 2.61352 32.722C2.61352 30.192 4.72952 28.49 6.70752 27.156C4.26952 26.006 2.56752 23.844 2.56752 20.67C2.56752 15.518 6.61552 12.436 11.9975 12.436C13.6075 12.436 14.8035 12.712 15.9535 13.08L23.4975 12.896V15.288H21.7035L18.2535 15.104C19.8175 16.116 21.1975 18.186 21.1975 20.486C21.1975 25.27 17.4255 28.26 11.9055 28.26ZM16.4135 37.046H5.92552C5.14352 37.874 4.77552 38.978 4.77552 40.312C4.77552 43.624 7.39752 45.648 11.7215 45.648C16.4595 45.648 20.5995 43.946 20.5995 40.22C20.5995 37.874 18.9895 37.046 16.4135 37.046ZM12.1815 26.926C14.9415 26.926 16.2295 24.258 16.2295 20.762C16.2295 16.99 14.7575 13.77 11.7675 13.77C8.96152 13.77 7.67352 16.484 7.67352 19.934C7.67352 23.752 9.14552 26.926 12.1815 26.926Z" fill="#F3ECE4"/>
</svg>
